/* XPM */
static char *result[] = {
/* columns rows colors chars-per-pixel */
"48 48 6 1 ",
"  c black",
". c #795548",
"X c #3F51B5",
"o c #E6E6E6",
"O c #FFEBEE",
"+ c None",
/* pixels */
"++++++++++++++++++++++++++++++++++++++++++++++++",
"++++++++++++++++++++++++++++++++++++++++++++++++",
"++++++++++++++++++++++++++++++++++++++++++++++++",
"++++++++++++++++++++++++++++++++++++++++++++++++",
"++++++++++++++++++++++++++++++++++++++++++++++++",
"++++++++++++++++++++++++++++++++++++++++++++++++",
"++++++++++++++++++++++++++++++++++++++++++++++++",
"++++++++++++++++++++++++++++++++++++++++++++++++",
"+++++++++++++++++++++        +++++++++++++++++++",
"++++++++++++++++++++          ++++++++++++++++++",
"+++++++++++++++++++           ++++++++++++++++++",
"+++++++++++++++++++   o OO oO ++++++++++++++++++",
"+++++++++++++++++++  Oo OO oO ++++++++++++++++++",
"+++++++++++++++++++ OOOOOOOOO ++++++++++++++++++",
"+++++++++++++++++++ OOOOOOOOO ++++++++++++++++++",
"+++++++++++++++++++ OOOOO  OO ++++++++++++++++++",
"++++++++++++++++++++ OOOOOOO +++++++++++++++++++",
"+++++++++++++++++++++  OOO  ++++++++++++++++++++",
"++++++++++++++++++++ XX O X ++++++++++++++++++++",
"++++++++++++++++++  XXXX XXX  ++++++++++++++++++",
"+++++++++++++++++ XXXXXXXXXXXX +++++++++++++++++",
"++++++++++++++++ XXXXXXXXXXX XX ++++++++++++++++",
"++++++++++++++++ XXXXXXXXXXX XX ++++++++++++++++",
"++++++++++++++++ XX XXXXXXXX XX ++++++++++++++++",
"++++++++++++++++ XX XXXXXXXX    ++++++++++++++++",
"++++++++++++++++    XXXXXXXX OO ++++++++++++++++",
"++++++++++++++++ OO XXXXXXXX OO ++++++++++++++++",
"++++++++++++++++ OO          OO ++++++++++++++++",
"++++++++++++++++ OO ........ OO ++++++++++++++++",
"++++++++++++++++ OO ........ OO ++++++++++++++++",
"++++++++++++++++ OO ........ OO ++++++++++++++++",
"+++++++++++++++++ O ........ O +++++++++++++++++",
"++++++++++++++++++  .... ...  ++++++++++++++++++",
"+++++++++++++++++++ .... ... +++++++++++++++++++",
"+++++++++++++++++++ .... ... +++++++++++++++++++",
"+++++++++++++++++++ .... ... +++++++++++++++++++",
"+++++++++++++++++++          +++++++++++++++++++",
"+++++++++++++++++++          +++++++++++++++++++",
"+++++++++++++++++++           ++++++++++++++++++",
"+++++++++++++++++++            +++++++++++++++++",
"+++++++++++++++++++             ++++++++++++++++",
"++++++++++++++++++++      +    +++++++++++++++++",
"++++++++++++++++++++++++++++++++++++++++++++++++",
"++++++++++++++++++++++++++++++++++++++++++++++++",
"++++++++++++++++++++++++++++++++++++++++++++++++",
"++++++++++++++++++++++++++++++++++++++++++++++++",
"++++++++++++++++++++++++++++++++++++++++++++++++",
"++++++++++++++++++++++++++++++++++++++++++++++++"
};
