/* XPM */
static char *result[] = {
/* columns rows colors chars-per-pixel */
"48 48 4 1 ",
"  c #1F4700",
". c #235300",
"X c #2B6300",
"o c #337B00",
/* pixels */
"XX XXXXXoXXXXX X XX XXXXX XXXXXXX.XXX X X X X.XX",
"oXXX   .XXXX.XX.X X XX. .X.XX..X.XX.oXX.....XXXX",
"X.X X .XX X X..XXX.XX  XX......X..X..X..X XXXoXX",
"..X..oX..X XX X X X.XX. o..X.Xo.oXXX.oXXX..XX. X",
"X.X. XXXX.XoXX.X..XX.X....XX... X..XXX.X.X.XXX X",
"XXXX  .XXXXXXXX X..X.X XXXX XXXXX.XXXXX..XX.X.XX",
"XoX.XXo XX o...XXXXX.XXXXXXXX  XXX ... XX  X..XX",
"XXX.XX X X .......oX...XXX .  XXXX...XXXXXX .X.X",
"..XXXXXX X.XX.XXX X.X XX ..X..X XX oXX..XX.X. XX",
".XX.XX .. .X...XXX X..  XX..X.XX.X XXX.XoX  XXoX",
"XXX..XXXX.XXX.XXXXXX..o XX .o XX..X.X...X  X XXX",
".X.X.X.XXX.o .XX XXXXX.. X.. ....XX...XX.XXXXX.X",
". XX.X.XX..X.X   XX.XX.X.XXX.XXX..XXXX .XXX.Xo.X",
".X X XX..XX... .XXX.X.X.X.X..XX.  .XX.X  XXXXo.X",
"X  ..XX...X ...XXXXXXX..o...XXX.X..XX..XX.X.X..X",
"XX.XXXXX XX..XX X  ..X..XXX.XXXX.XXXX XXX.XXXXXX",
"XXX.XXXXXX.X...XXXX.XXXXX.X X XXX..X  .X . XXXo ",
"Xo.XoXXXoXoX.XXX.XXX XXX.XX .X.XXXXX.X..XXoXX.  ",
"XX X.XX.XXX.XX  XXXo.X   XX X ...XXXX.. .X X. . ",
"o .XX....  XX ...XX.XXXX .XX . XXX..XXXXXXXX.XX.",
" XX.XXXXXX XX . X..oX.XX.X.. ....XXXoXo  .  .X X",
"XX .XX....  XXX...XXXX.XXX.XoXXXXX.XX oXXX X.oXX",
"XXXX.X..X.XXXXX.X .XX XXX. XXXX..X. X . X..X.X.X",
"X XXXXXX XXXX.Xoo.XXXX..XXX XX.XXoXX ..X..XX.X X",
"XX XXX  XXXXXXXXX.XXXXX.XX X.XX..XXXX.XX.XoXXX X",
"X X XX.X   ..XX..X. XX XX .XXXXXXXX  XX.XX  XXX ",
"XoXXXXXX .XXXX..XXX X.XX. XXoXXXX.X...XXXXX  XXX",
"XXX .o.X..X.X.XXXX.XXXXXXXX..XXX X.. .X..X. XX  ",
"XXXXX.XX.X.XX.X.XX.oXXXXX.X...XX X XXXoXX.X.X.X ",
"X. XXXXX...XX.X.X.X.Xo ..X...X.X.X..XXXX..Xo. XX",
".. . XXXXXXXXX..X..XXX.Xo.XXX X X.XoX.Xo.X... .X",
"..XXXXXX.X.Xo..XXX..XX XXXX.X.XXXXXXX..X...X .XX",
"X.. XXXXXX. X..XXXXX.XX.. XXXX.XXXX....X..X..XXX",
".XX.X XXX...X.XX.X..XXXXXXX XXoXXXX.XoX...X.X.Xo",
".XXXX XX.X..X.XX   X.X oXX.XXXX..X .X. ..XXXX...",
"XX.XX .. XoXXX.XXX  X.XXX.X.X .XXX....  . XXX.XX",
"XoX.X X XX..XXX XX. XXXXX.XX..XXXX.XXX.X.XXX.XX.",
" XX.XX.XoX.Xo.XXX.XX XX .XXX.XX...XX..X Xo..XXX.",
"XX....XXXXXXXXX.X.XX X X.XXXXXX.XXXX..XXXXXXXX.X",
"XX.XXX..XX.XXXoX..XXXX.X..XX.XX...XX.XX XXXXX X.",
".XX..X..XXXXXXXX..X o X..X.XXXXX X...XXo X.X XX.",
"XXo XX.X.oXXXX.XXXX.XXX..X..oXXXXX.X. . X.XXX  .",
"XXX X.XX..X.XXXX XoXXX...XXXXXXXXXXX.......XXX..",
"  XXXXXX XXXXX. XX.XXXXXX. .X...X..XXXX.X.XXXo.X",
"XXX .  X X ..XX..X.XXXX .X.X..XX.X.XoXXXX....Xo ",
"  X XX.XXXX.XX.XX.  X...XX. X . X. XXXXXXX.XXXXX",
"XX.XX  XX X X.X. ..XXXo.X  ..X.XXXXX Xo X.X.  XX",
"XXXX  XXX  XX..XXX X X..XXX X X oXXX XXX  XX XX "
};
