/* XPM */
static char *result[] = {
/* columns rows colors chars-per-pixel */
"48 48 9 1 ",
"  c gray13",
". c gray16",
"X c gray20",
"o c #1F4700",
"O c #235300",
"+ c #2B6300",
"@ c #337B00",
"# c gray36",
"$ c gray80",
/* pixels */
"++o+++++@+++++o+o++o+++++o+++++++O+++o+o+o+o+O++",
"@+++oOoO++++O++O+o+o++@@O@O++OO+O++O@++OOOOO+o++",
"+O+oOOOOOo+o+OO+++O@@@@@@@OOOOOXXXXXXXOO+oooooo+",
"OO+OoOOOOOO++o+o+o+O++@o@OO+OXXX######.X+OO+ooo+",
"+O+O@@OOOOOOO+O+OO++O+OOOO+XXX##XXXXXX....O+ooo+",
"+++o@@oOoo+++++o+OO+O+o++XX#XXXXXXXXXXXX....+oo+",
"+@+oo@@oooo@OOXXXXXXO+++X##XXXXXXXXXXXX.X....O++",
"+++o+@ooo+oXXXX####XXXX+X#XXXXX..XXXXXXX.....+O+",
"OO+oo+++oXX#XXXXXXXXXX##XXXXXX......##XXXX...o++",
"O++OoooOXX#XXXXXXXXXXXXX##XXX$..   ...##XX....@+",
"+++OOo+..##XXXXXXXXXXX#XX#XX$..  ooo..##XXX...++",
"O+O+O+..XXXXX.X...X.$XXXXX#X...OooooOO.##XXX..O+",
"Oo++O+..XXXXXX.......$XXXXXX.  oooo+++..##XX.. +",
"O+o+o...XXXX....   ...$XXXXXX ooooO++O+.##X... +",
"+ooOO..XXXXX....ooo ....XXX#X oooOO++OO.#XXX.. +",
"++O+ ...XXX..oooooooo ...XX#XX+oo++++o+.#X#X.. +",
"+++O ...XXX..oXXXXXXX  ..XXX#X.ooOO+oo..#XXX.  o",
"+@O+ ...XXX.XXX######. .XXXX#X.oo+++O+.##$XX.. o",
"++o+ ...XXX.###XXXXXX. .XXXX#X.oo++++O.#X$X.. oo",
"@oO+ ....XX.XXXXXXXXXX..XXXX#XX......X#X$X... oO",
"o++O ....XX..XXXXXXXX..#XXXX#XX....###$$XX.X +o+",
"++oO+ .X.X$#X.XXXXXX..##XXX..XXXXXXXXX$XX... @o+",
"++++O ...X$##...XXX..##XXXX..XXXXXXXXXX...   oo+",
"+o+++  ...XX###.....###XX.X.XXXXXXX..X..X   ooo+",
"++o+XX  X.X$XX#######XXX.X....X......... . oo+o+",
"+o+oX# . ..XX$$XXX##XXXX...............   ooo++o",
"+@++X#X   ..XXXX#XXXXX.....X...       ooooooo+++",
"+++XX#XX  ....XXXX.XX......X... oooooooOO+Oo++oo",
"+++X#XXX$.  .............#XX... ooo+++@++O+O+O+o",
"+OoX#XXXXX.   . ........##X.... ooOO++++OO+@Oo++",
"OOoX#XXXX.. oo      ++O.#XXX... oo+@+O+@O@@OOoO+",
"OO+X#XXXX.. ooO+++OO++o.#X#X... oo++oOO+@@o+oO++",
"+OOX#XXXX....ooo++++O+..#XXX..  oo+OoOO+@@oOOOO+",
"O++XXXXXXX...oooo+OO++.##$XX... oo+Ooo+@@o+O+OO@",
"O+++X#XXX.X...ooooo+O..#X$X... oo+oO+ooOooo++OOO",
"++o+X#XXXXX.....ooo..X##XXX.X. oo+OOOoooooo++O++",
"+@oOX##XXXXXX.......X##X$X...  o++OO+oooo+o+OO+O",
"o+oO+X##XXX.X.....####$$XX.X  ooOO+OOOooo@ooOOOO",
"++ooOXX##XXXXXXXXXXXX$$XX...  oo+++OOoo++oo+OOO+",
"++oo++XX#XXXXXXXXXXXXXX...   ooOOO+OOO+o++oOOO+O",
"O++oo+OX.XXXXXXXXX..X...X   ooo+o+OOOOO@o+ooOO+O",
"++@oooO+....XX.......X.. . ooo+++oOOOoOo+o+OOooO",
"+++@@oo+O..............  oooo++oooo+OoOoooOOO+OO",
"oo+@@@@oo++.........    oooO+OOOoooo++oOoO+O+@O+",
"+++o@oo+o+oOO+       oooooO+OO++O+oooo+++OOOO+@o",
"oo+o++O++++O++ooooooooooo+Oo+oOo+Oooo+++++O+++++",
"++O++oo++o+o+O+oooo+++@O+ooOO+O+++++o+@o+O+Ooo++",
"++++oo+++oo++OO+++o+o+OO+++o+o+o@+++o+++oo++o++o"
};
